<?xml version="1.0" encoding="UTF-8"?>
<svg xmlns="http://www.w3.org/2000/svg" xmlns:xlink="http://www.w3.org/1999/xlink" width="329pt" height="329pt" viewBox="0 0 329 329" version="1.1">
<g id="surface1">
<path style=" stroke:none;fill-rule:nonzero;fill:rgb(100%,100%,100%);fill-opacity:1;" d="M 5.539063 164.894531 C 5.539063 76.945313 76.832031 5.652344 164.78125 5.652344 C 252.730469 5.652344 324.023438 76.945313 324.023438 164.894531 C 324.023438 252.839844 252.730469 324.132813 164.78125 324.132813 C 76.832031 324.132813 5.539063 252.839844 5.539063 164.894531 "/>
<path style=" stroke:none;fill-rule:evenodd;fill:rgb(0%,32.499695%,60.798645%);fill-opacity:1;" d="M 73.054688 204.910156 L 75.25 209.613281 L 50.058594 221.359375 L 47.867188 216.65625 Z M 45.273438 218.109375 L 47.265625 222.378906 L 43.402344 224.179688 L 41.410156 219.910156 L 45.273438 218.109375 "/>
<path style=" stroke:none;fill-rule:nonzero;fill:rgb(0%,32.499695%,60.798645%);fill-opacity:1;" d="M 48.808594 194.398438 L 50.355469 199.15625 C 48.914063 199.597656 47.910156 200.066406 47.34375 200.5625 C 46.449219 201.320313 46.203125 202.324219 46.605469 203.566406 C 47.195313 205.378906 48.3125 206.015625 49.957031 205.480469 C 50.847656 205.191406 51.511719 204.675781 51.949219 203.9375 C 52.207031 203.460938 52.496094 202.628906 52.808594 201.4375 C 53.710938 197.894531 54.507813 195.429688 55.199219 194.035156 C 56.175781 192.082031 57.777344 190.742188 60.011719 190.019531 C 62.453125 189.222656 64.574219 189.355469 66.371094 190.40625 C 68.160156 191.4375 69.457031 193.195313 70.269531 195.6875 C 72.007813 201.042969 70.199219 204.589844 64.84375 206.332031 L 62.90625 206.960938 L 61.300781 202.027344 L 62.851563 201.523438 C 65.8125 200.5625 66.957031 199.046875 66.285156 196.980469 C 65.621094 194.9375 64.253906 194.25 62.1875 194.921875 C 60.847656 195.355469 59.898438 196.390625 59.339844 198.027344 C 58.875 199.710938 58.394531 201.386719 57.894531 203.054688 C 57.300781 205.066406 56.585938 206.664063 55.75 207.84375 C 54.890625 209.035156 53.683594 209.878906 52.132813 210.382813 C 47.480469 211.894531 44.316406 210.066406 42.636719 204.898438 C 41.535156 201.515625 41.917969 198.894531 43.785156 197.042969 C 44.722656 196.089844 46.398438 195.207031 48.808594 194.398438 "/>
<path style=" stroke:none;fill-rule:nonzero;fill:rgb(0%,32.499695%,60.798645%);fill-opacity:1;" d="M 43.679688 192.105469 L 39.644531 192.671875 L 37.234375 175.535156 L 41.273438 174.96875 L 42.113281 180.949219 L 65.597656 177.648438 L 66.320313 182.785156 L 42.835938 186.085938 L 43.679688 192.105469 "/>
<path style=" stroke:none;fill-rule:evenodd;fill:rgb(0%,32.499695%,60.798645%);fill-opacity:1;" d="M 64.777344 167.925781 L 64.585938 173.480469 L 37.039063 165.882813 L 37.285156 158.882813 L 65.28125 153.558594 L 65.085938 159.113281 L 58.003906 160.238281 L 57.789063 166.3125 Z M 45.910156 163.523438 L 53.746094 165.355469 L 53.898438 160.910156 L 45.960938 162.042969 C 44.746094 162.222656 43.457031 162.351563 42.09375 162.425781 C 41.671875 162.4375 41.050781 162.476563 40.234375 162.546875 L 40.230469 162.621094 C 41.488281 162.765625 43.378906 163.066406 45.910156 163.523438 "/>
<path style=" stroke:none;fill-rule:nonzero;fill:rgb(0%,32.499695%,60.798645%);fill-opacity:1;" d="M 46.121094 136.664063 L 40.792969 135.53125 L 41.871094 130.457031 L 69.058594 136.234375 L 67.933594 141.527344 L 57.414063 143.421875 C 54 144.035156 50.144531 144.476563 45.84375 144.75 L 45.828125 144.820313 C 52.535156 145.691406 57.714844 146.515625 61.363281 147.289063 L 66.476563 148.378906 L 65.398438 153.453125 L 38.210938 147.671875 L 39.328125 142.417969 L 50.066406 140.570313 C 53.757813 139.941406 57.617188 139.496094 61.636719 139.242188 L 61.652344 139.167969 C 54.632813 138.207031 49.457031 137.371094 46.121094 136.664063 "/>
<path style=" stroke:none;fill-rule:evenodd;fill:rgb(0%,32.499695%,60.798645%);fill-opacity:1;" d="M 73.867188 125.636719 L 70.144531 133.996094 L 44.753906 122.695313 L 48.160156 115.042969 C 49.324219 112.425781 50.746094 110.90625 52.417969 110.488281 C 53.851563 110.128906 55.5625 110.386719 57.546875 111.273438 C 60.34375 112.519531 61.664063 114.324219 61.503906 116.683594 L 61.574219 116.714844 C 63.007813 114.40625 65.519531 114.050781 69.105469 115.648438 C 70.4375 116.242188 71.425781 116.816406 72.070313 117.371094 C 73.453125 118.582031 74.28125 119.84375 74.5625 121.160156 C 74.851563 122.453125 74.621094 123.941406 73.867188 125.636719 Z M 57.121094 122.523438 L 57.511719 121.640625 C 58.328125 119.8125 58.535156 118.554688 58.140625 117.863281 C 57.839844 117.324219 57 116.746094 55.625 116.136719 C 54.585938 115.671875 53.792969 115.511719 53.246094 115.644531 C 52.578125 115.808594 52.019531 116.394531 51.566406 117.410156 L 50.585938 119.613281 Z M 68.53125 127.601563 L 68.980469 126.585938 C 69.644531 125.097656 69.976563 124.109375 69.976563 123.621094 C 69.980469 122.460938 69.023438 121.453125 67.105469 120.597656 C 65.660156 119.953125 64.570313 119.726563 63.839844 119.914063 C 63.007813 120.140625 62.28125 120.953125 61.660156 122.351563 L 60.84375 124.179688 L 68.53125 127.601563 "/>
<path style=" stroke:none;fill-rule:nonzero;fill:rgb(0%,32.499695%,60.798645%);fill-opacity:1;" d="M 77.570313 102.273438 L 62.054688 91.414063 L 65.03125 87.164063 L 80.910156 98.28125 C 83.519531 100.109375 85.035156 101.925781 85.460938 103.730469 C 85.910156 105.671875 85.191406 107.988281 83.308594 110.683594 C 81.410156 113.394531 79.464844 114.882813 77.46875 115.144531 C 75.628906 115.363281 73.402344 114.558594 70.792969 112.730469 L 54.914063 101.613281 L 57.890625 97.363281 L 73.402344 108.226563 C 74.800781 109.203125 75.902344 109.761719 76.707031 109.902344 C 77.929688 110.097656 78.992188 109.546875 79.898438 108.25 C 80.765625 107.015625 80.890625 105.867188 80.277344 104.804688 C 79.867188 104.097656 78.964844 103.253906 77.570313 102.273438 "/>
<path style=" stroke:none;fill-rule:nonzero;fill:rgb(0%,32.499695%,60.798645%);fill-opacity:1;" d="M 100.210938 91.164063 L 89.546875 101.460938 L 70.242188 81.46875 L 73.972656 77.863281 L 90.449219 94.925781 L 97.378906 88.230469 L 100.210938 91.164063 "/>
<path style=" stroke:none;fill-rule:evenodd;fill:rgb(0%,32.499695%,60.798645%);fill-opacity:1;" d="M 110.71875 83.9375 L 105.859375 86.632813 L 98.1875 59.109375 L 104.3125 55.710938 L 123.296875 76.964844 L 118.433594 79.660156 L 113.820313 74.167969 L 108.507813 77.113281 Z M 104.777344 65.496094 L 107.242188 73.152344 L 111.132813 70.996094 L 106.074219 64.777344 C 105.292969 63.828125 104.519531 62.785156 103.753906 61.660156 C 103.527344 61.304688 103.171875 60.792969 102.691406 60.128906 L 102.628906 60.164063 C 103.152344 61.3125 103.867188 63.089844 104.777344 65.496094 "/>
<path style=" stroke:none;fill-rule:evenodd;fill:rgb(0%,32.499695%,60.798645%);fill-opacity:1;" d="M 125.613281 63.707031 L 124.730469 63.992188 L 128.429688 75.375 L 123.496094 76.980469 L 114.90625 50.546875 L 124.246094 47.511719 C 129.253906 45.886719 132.441406 47.1875 133.816406 51.417969 C 135.074219 55.296875 134.414063 57.859375 131.835938 59.113281 L 131.859375 59.183594 C 134.503906 58.6875 136.289063 59.875 137.222656 62.738281 C 138.886719 67.863281 140.144531 70.53125 140.992188 70.75 L 141.152344 71.242188 L 135.726563 73.003906 C 135.191406 72.320313 134.289063 70.148438 133.023438 66.480469 C 132.59375 65.242188 132.242188 64.398438 131.964844 63.941406 C 131.398438 63.085938 130.71875 62.671875 129.921875 62.695313 C 129.046875 62.722656 127.609375 63.058594 125.613281 63.707031 Z M 121.101563 52.820313 L 123.472656 60.117188 L 127.347656 58.855469 C 129.277344 58.230469 129.828125 56.648438 129.003906 54.113281 C 128.550781 52.726563 127.960938 51.863281 127.230469 51.53125 C 126.621094 51.261719 125.800781 51.292969 124.765625 51.628906 L 121.101563 52.820313 "/>
<path style=" stroke:none;fill-rule:nonzero;fill:rgb(0%,32.499695%,60.798645%);fill-opacity:1;" d="M 157.070313 69.378906 L 142.578125 71.160156 L 139.191406 43.574219 L 153.683594 41.796875 L 154.179688 45.839844 L 144.835938 46.988281 L 145.691406 53.9375 L 154.296875 52.882813 L 154.792969 56.929688 L 146.1875 57.984375 L 147.230469 66.480469 L 156.570313 65.335938 L 157.070313 69.378906 "/>
<path style=" stroke:none;fill-rule:nonzero;fill:rgb(0%,32.499695%,60.798645%);fill-opacity:1;" d="M 173.089844 69.988281 L 158.273438 69.472656 L 159.242188 41.699219 L 164.429688 41.878906 L 163.601563 65.578125 L 173.230469 65.917969 L 173.089844 69.988281 "/>
<path style=" stroke:none;fill-rule:evenodd;fill:rgb(0%,32.499695%,60.798645%);fill-opacity:1;" d="M 196.039063 43.777344 L 191.539063 42.402344 L 192.785156 38.324219 L 197.285156 39.703125 Z M 202.984375 45.898438 L 198.449219 44.515625 L 199.695313 40.4375 L 204.230469 41.824219 Z M 194.347656 66.160156 L 199.886719 48.050781 L 204.847656 49.570313 L 199.179688 68.101563 C 198.246094 71.148438 196.988281 73.15625 195.402344 74.117188 C 193.695313 75.144531 191.269531 75.175781 188.128906 74.214844 C 184.960938 73.246094 182.945313 71.855469 182.078125 70.042969 C 181.300781 68.359375 181.378906 65.992188 182.3125 62.945313 L 187.976563 44.410156 L 192.9375 45.929688 L 187.402344 64.035156 C 186.902344 65.667969 186.710938 66.886719 186.824219 67.695313 C 187.019531 68.917969 187.875 69.761719 189.386719 70.222656 C 190.828125 70.664063 191.960938 70.429688 192.78125 69.515625 C 193.328125 68.910156 193.851563 67.789063 194.347656 66.160156 "/>
<path style=" stroke:none;fill-rule:nonzero;fill:rgb(0%,32.499695%,60.798645%);fill-opacity:1;" d="M 220.433594 63.007813 L 222.992188 58.199219 L 227.574219 60.636719 L 214.523438 85.171875 L 209.746094 82.632813 L 210.828125 72.003906 C 211.179688 68.550781 211.816406 64.722656 212.738281 60.511719 L 212.671875 60.476563 C 209.988281 66.6875 207.769531 71.4375 206.015625 74.730469 L 203.5625 79.34375 L 198.984375 76.910156 L 212.03125 52.371094 L 216.777344 54.894531 L 215.59375 65.722656 C 215.179688 69.445313 214.539063 73.277344 213.679688 77.210938 L 213.746094 77.246094 C 216.605469 70.765625 218.835938 66.019531 220.433594 63.007813 "/>
<path style=" stroke:none;fill-rule:evenodd;fill:rgb(0%,32.499695%,60.798645%);fill-opacity:1;" d="M 220.238281 89.664063 L 216.039063 86.613281 L 232.378906 64.132813 L 236.574219 67.179688 Z M 238.136719 64.652344 L 234.328125 61.886719 L 236.835938 58.4375 L 240.644531 61.203125 L 238.136719 64.652344 "/>
<path style=" stroke:none;fill-rule:evenodd;fill:rgb(0%,32.499695%,60.798645%);fill-opacity:1;" d="M 235.152344 89.441406 L 249.449219 78.402344 L 253.515625 82.195313 L 230.167969 98.425781 L 225.101563 93.699219 L 239.558594 69.179688 L 243.621094 72.96875 L 233.851563 88.230469 C 233.105469 89.390625 232.179688 90.691406 231.074219 92.128906 C 230.125 93.367188 229.65625 93.980469 229.671875 93.960938 L 229.726563 94.011719 C 229.710938 94.027344 230.285156 93.519531 231.457031 92.480469 C 232.539063 91.535156 233.773438 90.523438 235.152344 89.441406 "/>
<path style=" stroke:none;fill-rule:nonzero;fill:rgb(0%,32.499695%,60.798645%);fill-opacity:1;" d="M 243.3125 114.863281 L 234.730469 103.054688 L 257.214844 86.71875 L 265.796875 98.527344 L 262.5 100.925781 L 256.964844 93.3125 L 251.300781 97.429688 L 256.394531 104.441406 L 253.097656 106.839844 L 248.003906 99.824219 L 241.074219 104.855469 L 246.609375 112.46875 L 243.3125 114.863281 "/>
<path style=" stroke:none;fill-rule:evenodd;fill:rgb(0%,32.499695%,60.798645%);fill-opacity:1;" d="M 257.511719 116.113281 L 257.105469 115.28125 L 246.347656 120.527344 L 244.074219 115.863281 L 269.054688 103.683594 L 273.355469 112.507813 C 275.664063 117.238281 274.820313 120.578125 270.820313 122.527344 C 267.160156 124.3125 264.527344 124.015625 262.925781 121.636719 L 262.859375 121.667969 C 263.71875 124.21875 262.792969 126.152344 260.085938 127.476563 C 255.242188 129.835938 252.773438 131.453125 252.675781 132.324219 L 252.210938 132.550781 L 249.710938 127.421875 C 250.3125 126.800781 252.339844 125.601563 255.792969 123.835938 C 256.960938 123.238281 257.75 122.773438 258.160156 122.433594 C 258.929688 121.757813 259.246094 121.027344 259.109375 120.238281 C 258.964844 119.378906 258.433594 118 257.511719 116.113281 Z M 267.664063 110.132813 L 260.769531 113.496094 L 262.554688 117.15625 C 263.445313 118.980469 265.085938 119.304688 267.484375 118.136719 C 268.796875 117.496094 269.5625 116.789063 269.792969 116.019531 C 269.976563 115.382813 269.828125 114.574219 269.351563 113.597656 L 267.664063 110.132813 "/>
<path style=" stroke:none;fill-rule:nonzero;fill:rgb(0%,32.499695%,60.798645%);fill-opacity:1;" d="M 275.316406 144.109375 L 274.019531 139.277344 C 275.484375 138.910156 276.511719 138.496094 277.101563 138.03125 C 278.035156 137.320313 278.335938 136.332031 277.996094 135.066406 C 277.503906 133.230469 276.421875 132.535156 274.75 132.984375 C 273.84375 133.226563 273.152344 133.703125 272.679688 134.421875 C 272.394531 134.882813 272.0625 135.699219 271.6875 136.871094 C 270.601563 140.359375 269.679688 142.78125 268.914063 144.136719 C 267.839844 146.035156 266.167969 147.289063 263.902344 147.898438 C 261.417969 148.5625 259.308594 148.324219 257.570313 147.179688 C 255.835938 146.054688 254.632813 144.230469 253.953125 141.703125 C 252.496094 136.261719 254.488281 132.8125 259.925781 131.355469 L 261.894531 130.828125 L 263.238281 135.839844 L 261.664063 136.261719 C 258.65625 137.066406 257.433594 138.519531 257.996094 140.617188 C 258.554688 142.695313 259.882813 143.449219 261.980469 142.886719 C 263.34375 142.523438 264.34375 141.539063 264.988281 139.933594 C 265.542969 138.277344 266.109375 136.628906 266.695313 134.988281 C 267.390625 133.011719 268.191406 131.453125 269.089844 130.320313 C 270.007813 129.175781 271.257813 128.394531 272.832031 127.972656 C 277.558594 126.707031 280.621094 128.699219 282.03125 133.949219 C 282.949219 137.382813 282.433594 139.980469 280.472656 141.730469 C 279.484375 142.636719 277.765625 143.429688 275.316406 144.109375 "/>
<path style=" stroke:none;fill-rule:evenodd;fill:rgb(0%,32.499695%,60.798645%);fill-opacity:1;" d="M 257.347656 156.175781 L 256.625 151.035156 L 284.144531 147.167969 L 284.867188 152.304688 Z M 287.773438 151.671875 L 287.117188 147.011719 L 291.339844 146.421875 L 291.992188 151.078125 L 287.773438 151.671875 "/>
<path style=" stroke:none;fill-rule:nonzero;fill:rgb(0%,32.499695%,60.798645%);fill-opacity:1;" d="M 281.375 155.769531 L 285.453125 155.695313 L 285.753906 173 L 281.679688 173.070313 L 281.570313 167.03125 L 257.859375 167.445313 L 257.769531 162.257813 L 281.480469 161.84375 L 281.375 155.769531 "/>
<path style=" stroke:none;fill-rule:nonzero;fill:rgb(0%,32.499695%,60.798645%);fill-opacity:1;" d="M 255.648438 188.011719 L 257.679688 173.554688 L 285.203125 177.421875 L 283.171875 191.878906 L 279.136719 191.3125 L 280.445313 181.992188 L 273.507813 181.015625 L 272.300781 189.605469 L 268.265625 189.035156 L 269.472656 180.449219 L 260.996094 179.257813 L 259.683594 188.578125 L 255.648438 188.011719 "/>
<path style=" stroke:none;fill-rule:nonzero;fill:rgb(0%,32.499695%,60.798645%);fill-opacity:1;" d="M 268.800781 210.09375 L 270.347656 205.335938 C 271.773438 205.824219 272.859375 206.035156 273.609375 205.96875 C 274.78125 205.878906 275.566406 205.214844 275.972656 203.96875 C 276.5625 202.160156 276.03125 200.988281 274.386719 200.453125 C 273.496094 200.164063 272.65625 200.1875 271.867188 200.53125 C 271.378906 200.761719 270.65625 201.265625 269.699219 202.046875 C 266.890625 204.382813 264.796875 205.910156 263.417969 206.628906 C 261.480469 207.636719 259.394531 207.777344 257.164063 207.054688 C 254.71875 206.257813 253.082031 204.90625 252.246094 203 C 251.402344 201.117188 251.386719 198.929688 252.195313 196.4375 C 253.9375 191.082031 257.484375 189.273438 262.84375 191.015625 L 264.78125 191.644531 L 263.179688 196.578125 L 261.628906 196.074219 C 258.667969 195.113281 256.851563 195.664063 256.179688 197.730469 C 255.515625 199.777344 256.21875 201.136719 258.285156 201.804688 C 259.621094 202.242188 261 201.960938 262.414063 200.964844 C 263.78125 199.878906 265.15625 198.804688 266.539063 197.746094 C 268.199219 196.46875 269.71875 195.597656 271.089844 195.136719 C 272.484375 194.679688 273.957031 194.703125 275.507813 195.207031 C 280.160156 196.71875 281.644531 200.058594 279.96875 205.226563 C 278.867188 208.609375 277.019531 210.503906 274.421875 210.90625 C 273.101563 211.128906 271.226563 210.855469 268.800781 210.09375 "/>
<path style=" stroke:none;fill-rule:evenodd;fill:rgb(0%,32.499695%,60.798645%);fill-opacity:1;" d="M 247.03125 210.511719 L 249.308594 205.851563 L 274.285156 218.03125 L 272.011719 222.695313 Z M 274.773438 223.796875 L 276.835938 219.566406 L 280.667969 221.433594 L 278.605469 225.664063 L 274.773438 223.796875 "/>
<path style=" stroke:none;fill-rule:evenodd;fill:rgb(0%,32.499695%,60.798645%);fill-opacity:1;" d="M 258.960938 254.339844 L 215.296875 254.339844 L 211.546875 247.703125 C 217.824219 243.398438 222.734375 238.246094 226.238281 232.335938 C 230.027344 226.191406 231.878906 219.382813 231.878906 212.046875 L 231.878906 210.410156 Z M 186.203125 202.84375 L 163.996094 163.527344 L 146.285156 125.539063 L 179.566406 125.539063 L 186.203125 136.3125 L 186.203125 202.84375 "/>
<path style=" stroke:none;fill-rule:evenodd;fill:rgb(67.098999%,55.699158%,34.899902%);fill-opacity:1;" d="M 136.777344 253.796875 C 130.765625 252.09375 125.28125 249.875 120.355469 247.164063 L 128.320313 233.574219 L 136.535156 219.300781 C 137.816406 223.003906 140.027344 226.007813 143.015625 228.351563 C 147.800781 231.972656 154.238281 233.792969 162.628906 233.792969 C 171.050781 233.792969 177.488281 231.972656 182.277344 228.320313 C 187.355469 224.460938 190.238281 218.792969 190.238281 211.152344 L 190.238281 125.539063 L 227.851563 125.539063 L 227.851563 212.042969 C 227.851563 218.671875 226.1875 224.738281 222.808594 230.21875 C 219.585938 235.675781 215.007813 240.484375 209.03125 244.539063 C 203.199219 248.480469 196.246094 251.578125 188.222656 253.800781 C 180.332031 256.03125 171.785156 257.136719 162.628906 257.136719 C 153.464844 257.136719 144.824219 256.027344 136.777344 253.796875 Z M 97.40625 197.4375 L 97.40625 125.539063 L 135.261719 125.539063 L 135.261719 135.789063 L 97.40625 197.4375 "/>
<path style=" stroke:none;fill-rule:nonzero;fill:rgb(0%,32.499695%,60.798645%);fill-opacity:1;" d="M 163.996094 163.527344 L 124.832031 231.546875 L 111.476563 254.339844 L 67.199219 254.339844 L 146.285156 125.539063 L 179.566406 125.539063 L 163.996094 163.527344 "/>
<path style=" stroke:none;fill-rule:nonzero;fill:rgb(0%,32.499695%,60.798645%);fill-opacity:1;" d="M 163.078125 79.605469 C 153.230469 79.605469 145.246094 87.589844 145.246094 97.4375 C 145.246094 107.285156 153.230469 115.269531 163.078125 115.269531 C 172.929688 115.269531 180.914063 107.285156 180.914063 97.4375 C 180.914063 87.589844 172.929688 79.605469 163.078125 79.605469 "/>
<path style=" stroke:none;fill-rule:nonzero;fill:rgb(0%,32.499695%,60.798645%);fill-opacity:1;" d="M 149.535156 277.332031 L 146.605469 277.332031 L 146.605469 276.613281 C 146.605469 275.238281 146.96875 274.179688 147.691406 273.445313 C 148.417969 272.710938 149.464844 272.339844 150.839844 272.339844 C 152.105469 272.339844 153.085938 272.660156 153.785156 273.296875 C 154.484375 273.9375 154.835938 274.882813 154.835938 276.132813 C 154.835938 276.980469 154.699219 277.703125 154.429688 278.304688 C 154.171875 278.894531 153.730469 279.488281 153.105469 280.089844 L 151.910156 281.25 C 150.804688 282.320313 150.195313 283.121094 150.085938 283.664063 L 154.855469 283.664063 L 154.855469 286.148438 L 146.589844 286.148438 L 146.589844 285.6875 C 146.589844 283.796875 147.550781 281.839844 149.480469 279.816406 L 150.878906 278.34375 C 151.46875 277.714844 151.761719 276.9375 151.761719 276.003906 C 151.761719 275.613281 151.675781 275.292969 151.503906 275.046875 C 151.296875 274.753906 150.996094 274.617188 150.601563 274.640625 C 149.890625 274.691406 149.535156 275.367188 149.535156 276.667969 L 149.535156 277.332031 "/>
<path style=" stroke:none;fill-rule:evenodd;fill:rgb(0%,32.499695%,60.798645%);fill-opacity:1;" d="M 156.070313 282.667969 L 156.070313 276.242188 C 156.070313 273.640625 157.4375 272.339844 160.175781 272.339844 C 161.757813 272.339844 162.851563 272.734375 163.453125 273.519531 C 163.980469 274.21875 164.242188 275.390625 164.242188 277.035156 L 164.242188 282.007813 C 164.242188 283.578125 163.953125 284.699219 163.378906 285.375 C 162.738281 286.109375 161.660156 286.480469 160.136719 286.480469 C 157.425781 286.480469 156.070313 285.210938 156.070313 282.667969 Z M 161.167969 282.449219 L 161.167969 276.242188 C 161.167969 275.175781 160.839844 274.640625 160.175781 274.640625 C 159.734375 274.640625 159.4375 274.8125 159.289063 275.15625 C 159.191406 275.367188 159.144531 275.726563 159.144531 276.242188 L 159.144531 282.449219 C 159.144531 283.011719 159.1875 283.40625 159.273438 283.625 C 159.421875 284.007813 159.722656 284.191406 160.175781 284.179688 C 160.839844 284.164063 161.167969 283.589844 161.167969 282.449219 "/>
<path style=" stroke:none;fill-rule:evenodd;fill:rgb(0%,32.499695%,60.798645%);fill-opacity:1;" d="M 165.460938 282.667969 L 165.460938 276.242188 C 165.460938 273.640625 166.828125 272.339844 169.5625 272.339844 C 171.148438 272.339844 172.238281 272.734375 172.839844 273.519531 C 173.367188 274.21875 173.632813 275.390625 173.632813 277.035156 L 173.632813 282.007813 C 173.632813 283.578125 173.34375 284.699219 172.769531 285.375 C 172.128906 286.109375 171.050781 286.480469 169.527344 286.480469 C 166.816406 286.480469 165.460938 285.210938 165.460938 282.667969 Z M 170.558594 282.449219 L 170.558594 276.242188 C 170.558594 275.175781 170.226563 274.640625 169.5625 274.640625 C 169.121094 274.640625 168.828125 274.8125 168.679688 275.15625 C 168.582031 275.367188 168.535156 275.726563 168.535156 276.242188 L 168.535156 282.449219 C 168.535156 283.011719 168.578125 283.40625 168.664063 283.625 C 168.808594 284.007813 169.109375 284.191406 169.5625 284.179688 C 170.226563 284.164063 170.558594 283.589844 170.558594 282.449219 "/>
<path style=" stroke:none;fill-rule:nonzero;fill:rgb(0%,32.499695%,60.798645%);fill-opacity:1;" d="M 174.589844 275.121094 L 174.589844 272.636719 L 182.542969 272.636719 L 182.542969 274.9375 C 181.585938 276.617188 180.757813 278.800781 180.058594 281.492188 C 179.714844 282.78125 179.445313 284.332031 179.246094 286.148438 L 176.0625 286.148438 C 176.0625 285.289063 176.320313 283.96875 176.835938 282.191406 C 177.289063 280.644531 177.746094 279.355469 178.199219 278.324219 L 179.636719 275.121094 L 174.589844 275.121094 "/>
<path style="fill:none;stroke-width:48.387;stroke-linecap:butt;stroke-linejoin:miter;stroke:rgb(67.098999%,55.699158%,34.899902%);stroke-opacity:1;stroke-miterlimit:3.86369;" d="M 204.804688 1641.054688 C 204.804688 2438.007813 850.859375 3084.023438 1647.8125 3084.023438 C 2444.765625 3084.023438 3090.78125 2438.007813 3090.78125 1641.054688 C 3090.78125 844.140625 2444.765625 198.125 1647.8125 198.125 C 850.859375 198.125 204.804688 844.140625 204.804688 1641.054688 Z M 204.804688 1641.054688 " transform="matrix(0.1,0,0,-0.1,0,329)"/>
<path style="fill:none;stroke-width:96.781;stroke-linecap:butt;stroke-linejoin:miter;stroke:rgb(0%,32.499695%,60.798645%);stroke-opacity:1;stroke-miterlimit:3.86369;" d="M 55.390625 1641.054688 C 55.390625 2520.546875 768.320313 3233.4375 1647.8125 3233.4375 C 2527.304688 3233.4375 3240.234375 2520.546875 3240.234375 1641.054688 C 3240.234375 761.601563 2527.304688 48.710938 1647.8125 48.710938 C 768.320313 48.710938 55.390625 761.601563 55.390625 1641.054688 Z M 55.390625 1641.054688 " transform="matrix(0.1,0,0,-0.1,0,329)"/>
</g>
</svg>
